<?xml version="1.0" encoding="iso-8859-1"?>
<!-- Generator: Adobe Illustrator 17.0.0, SVG Export Plug-In . SVG Version: 6.00 Build 0)  -->
<!DOCTYPE svg PUBLIC "-//W3C//DTD SVG 1.1//EN" "http://www.w3.org/Graphics/SVG/1.1/DTD/svg11.dtd">
<svg version="1.1" id="Layer_1" xmlns="http://www.w3.org/2000/svg" xmlns:xlink="http://www.w3.org/1999/xlink" x="0px" y="0px"
	 width="960px" height="560px" viewBox="0 0 960 560" style="enable-background:new 0 0 960 560;" xml:space="preserve">
<g>
	<path style="fill:#B2B2B2;" d="M480.923,139L347,186.131l21.162,175.462l112.903,62.054l113.485-62.895l21.156-175.455L480.923,139
		z M480.923,139"/>
	<path style="fill:#10ABC1;" d="M362.028,196.186l18.134,156.922l100.447,55.713V153.918L362.028,196.186z M362.028,196.186"/>
	<path style="display:none;fill:#F0F0F0;" d="M508.828,280.705l-27.995-58.464l-24.647,58.464H508.828z M519.502,305.288h-74.211
		l-16.602,41.527l-30.881,0.57l82.804-184.206l85.69,184.206h-28.622L519.502,305.288z M519.502,305.288"/>
	<path style="display:none;fill:#B2B2B2;" d="M480.61,163.178l0.221,59.063l27.967,58.509h-28.125l-0.063,24.5l38.891,0.038
		l18.177,42.104l29.549,0.549L480.61,163.178z M480.61,163.178"/>
	<path style="fill:#CFEEF3;" d="M413.628,350.502c0,0-63.825-101.565,67.474-166.964v166.964H413.628z"/>
	<path style="fill:#0C8091;" d="M602.348,195.436L480.61,153.924v254.897l102.022-56.462L602.348,195.436z M602.348,195.436"/>
	<path style="fill:#CFEEF3;" d="M500.431,350.502V247.015c0,0,20.956,34.199,63.546,103.488H500.431z"/>
</g>
</svg>
