<?xml version="1.0" encoding="iso-8859-1"?>
<!-- Generator: Adobe Illustrator 17.0.0, SVG Export Plug-In . SVG Version: 6.00 Build 0)  -->
<!DOCTYPE svg PUBLIC "-//W3C//DTD SVG 1.1//EN" "http://www.w3.org/Graphics/SVG/1.1/DTD/svg11.dtd">
<svg version="1.1" id="Layer_1" xmlns="http://www.w3.org/2000/svg" xmlns:xlink="http://www.w3.org/1999/xlink" x="0px" y="0px"
	 width="480px" height="320.115px" viewBox="0 0 480 320.115" style="enable-background:new 0 0 480 320.115;" xml:space="preserve"
	>
<g>
	<g>
		<g>
			<path style="fill:#061D20;" d="M158.896,162.806c-2.277-1.602-4.434-2.217-7.205-2.217c-2.895,0-4.372,1.047-4.372,2.525
				c0,1.662,1.54,2.586,4.496,2.646c5.973,0.186,13.179,1.418,13.24,9.793c0.061,4.926-3.634,10.223-13.302,10.223
				c-4.496,0-9.115-0.863-14.287-5.174l3.816-6.281c3.757,3.08,7.391,3.756,10.593,3.818c2.587,0.062,4.62-0.984,4.558-2.586
				c0-1.418-1.047-2.586-5.173-2.709c-5.666-0.248-12.747-2.588-12.747-9.73c0-6.898,6.526-9.791,13.117-9.791
				c4.68,0,8.436,1.168,11.639,3.939L158.896,162.806z"/>
			<path style="fill:#061D20;" d="M192.335,154.185h8.313c0,10.1,0,20.322,0,30.422h-8.006l-0.492-3.818
				c-2.033,3.201-6.405,4.434-9.361,4.496c-9.113,0.061-15.703-5.852-15.703-15.889c0-10.1,6.959-16.012,15.95-15.889
				c3.817,0,7.39,1.477,8.99,4.188L192.335,154.185z M175.953,169.395c0,5.049,3.572,8.006,8.006,8.006
				c4.989,0,8.067-3.881,8.067-7.699c0-4.371-2.77-8.375-8.067-8.375C179.525,161.327,175.953,164.345,175.953,169.395z"/>
			<path style="fill:#061D20;" d="M216.105,146.116c0,6.652-10.1,6.652-10.1,0C206.005,139.466,216.105,139.466,216.105,146.116z
				 M206.621,154.122v30.484h8.868v-30.484H206.621z"/>
			<path style="fill:#061D20;" d="M230.391,141.56v43.047h-8.807V141.56H230.391z"/>
			<path style="fill:#061D20;" d="M255.639,162.806c-2.278-1.602-4.434-2.217-7.205-2.217c-2.895,0-4.372,1.047-4.372,2.525
				c0,1.662,1.539,2.586,4.495,2.646c5.973,0.186,13.179,1.418,13.24,9.793c0.061,4.926-3.633,10.223-13.302,10.223
				c-4.495,0-9.114-0.863-14.287-5.174l3.817-6.281c3.757,3.08,7.391,3.756,10.593,3.818c2.587,0.062,4.619-0.984,4.558-2.586
				c0-1.418-1.047-2.586-5.173-2.709c-5.667-0.248-12.748-2.588-12.748-9.73c0-6.898,6.527-9.791,13.117-9.791
				c4.681,0,8.436,1.168,11.64,3.939L255.639,162.806z"/>
		</g>
		<path style="fill:#10ACC2;" d="M276.27,186.138c0,0-27.943-44.467,29.541-73.1v73.1H276.27z"/>
		<path style="fill:#10ACC2;" d="M314.711,186.138v-45.309c0,0,9.175,14.973,27.821,45.309H314.711z"/>
	</g>
</g>
</svg>
