<?xml version="1.0" encoding="iso-8859-1"?>
<!-- Generator: Adobe Illustrator 17.0.0, SVG Export Plug-In . SVG Version: 6.00 Build 0)  -->
<!DOCTYPE svg PUBLIC "-//W3C//DTD SVG 1.1//EN" "http://www.w3.org/Graphics/SVG/1.1/DTD/svg11.dtd">
<svg version="1.1" id="Layer_1" xmlns="http://www.w3.org/2000/svg" xmlns:xlink="http://www.w3.org/1999/xlink" x="0px" y="0px"
	 width="480px" height="320.115px" viewBox="0 0 480 320.115" style="enable-background:new 0 0 480 320.115;" xml:space="preserve"
	>
<g>
	<rect x="0" style="fill:#C1D1D1;" width="480" height="320.115"/>
	<g>
		<g>
			<path style="fill:#061D20;" d="M158.898,161.229c-2.278-1.601-4.435-2.217-7.206-2.217c-2.895,0-4.371,1.046-4.371,2.525
				c0,1.663,1.539,2.587,4.495,2.647c5.973,0.186,13.179,1.416,13.24,9.793c0.062,4.926-3.634,10.222-13.302,10.222
				c-4.496,0-9.114-0.862-14.287-5.173l3.817-6.281c3.757,3.079,7.39,3.756,10.593,3.818c2.586,0.061,4.619-0.985,4.557-2.586
				c0-1.418-1.046-2.588-5.172-2.71c-5.667-0.247-12.748-2.587-12.748-9.73c0-6.898,6.527-9.792,13.117-9.792
				c4.681,0,8.438,1.169,11.639,3.941L158.898,161.229z"/>
			<path style="fill:#061D20;" d="M192.335,152.606h8.313c0,10.099,0,20.322,0,30.422h-8.006l-0.492-3.818
				c-2.032,3.202-6.405,4.434-9.361,4.495c-9.113,0.062-15.703-5.85-15.703-15.888c0-10.1,6.959-16.012,15.95-15.888
				c3.817,0,7.39,1.477,8.99,4.187L192.335,152.606z M175.954,167.817c0,5.05,3.571,8.006,8.005,8.006
				c4.989,0,8.067-3.88,8.067-7.698c0-4.371-2.77-8.375-8.067-8.375C179.525,159.75,175.954,162.768,175.954,167.817z"/>
			<path style="fill:#061D20;" d="M216.105,144.539c0,6.651-10.101,6.651-10.101,0C206.005,137.888,216.105,137.888,216.105,144.539
				z M206.621,152.545v30.483h8.869v-30.483H206.621z"/>
			<path style="fill:#061D20;" d="M230.391,139.981v43.047h-8.807v-43.047H230.391z"/>
			<path style="fill:#061D20;" d="M255.639,161.229c-2.278-1.601-4.434-2.217-7.205-2.217c-2.895,0-4.372,1.046-4.372,2.525
				c0,1.663,1.539,2.587,4.496,2.647c5.973,0.186,13.178,1.416,13.24,9.793c0.061,4.926-3.634,10.222-13.303,10.222
				c-4.495,0-9.114-0.862-14.287-5.173l3.817-6.281c3.757,3.079,7.391,3.756,10.593,3.818c2.587,0.061,4.62-0.985,4.558-2.586
				c0-1.418-1.047-2.588-5.173-2.71c-5.666-0.247-12.748-2.587-12.748-9.73c0-6.898,6.527-9.792,13.118-9.792
				c4.68,0,8.437,1.169,11.639,3.941L255.639,161.229z"/>
		</g>
		<path style="fill:#0E8DA0;" d="M276.271,184.559c0,0-27.944-44.466,29.54-73.099v73.099H276.271z"/>
		<path style="fill:#0E8DA0;" d="M314.711,184.559v-45.307c0,0,9.176,14.973,27.821,45.307H314.711z"/>
	</g>
</g>
</svg>
